<svg width="22" height="20" viewBox="0 0 22 20" fill="none" xmlns="http://www.w3.org/2000/svg">
<path d="M3.40099 7.49614L18.7405 1.31372C20.1865 0.730896 20.9096 0.439485 21.3653 0.800715C21.8209 1.16195 21.7022 1.9324 21.4648 3.47332L19.3873 16.9552C19.1742 18.3378 19.0677 19.029 18.5695 19.2511C18.0713 19.4731 17.486 19.0901 16.3155 18.3242L12.9 16.0892C11.0039 14.8485 10.0558 14.2281 9.95614 13.2843C9.85647 12.3404 10.654 11.5357 12.2492 9.92632L17.1788 4.95253C17.3772 4.75237 17.2354 4.41222 16.9536 4.41222C16.8907 4.41222 16.8293 4.4309 16.777 4.4659L7.25622 10.8458C6.49777 11.354 6.11855 11.6082 5.68248 11.6767C5.24641 11.7453 4.80751 11.6197 3.92971 11.3687L3.59872 11.2741C1.2749 10.6095 0.112993 10.2772 0.0756805 9.56431C0.0383682 8.85141 1.15924 8.39965 3.40099 7.49614Z" fill="#1D68F9"/>
</svg>
