<svg width="12" height="25" viewBox="0 0 12 25" fill="none" xmlns="http://www.w3.org/2000/svg">
<path d="M7.66572 23.5296C7.66572 23.8058 7.44186 24.0296 7.16572 24.0296H3.23654C2.9604 24.0296 2.73654 23.8058 2.73654 23.5296V6.15707C2.73654 4.82494 3.0085 3.70399 3.55241 2.79424C4.10765 1.87366 4.88385 1.18051 5.88102 0.714805C6.88952 0.238268 8.08499 0 9.46742 0C9.92068 0 10.3569 0.0324912 10.7762 0.0974735C11.0557 0.133575 11.3302 0.176896 11.5996 0.227438C11.8333 0.271268 11.9975 0.479469 11.9941 0.717178L11.9581 3.20216C11.9535 3.52473 11.6479 3.75889 11.327 3.72585C11.3078 3.72387 11.2885 3.722 11.2691 3.72024C11.0312 3.69858 10.7535 3.68775 10.4363 3.68775C9.84702 3.68775 9.34278 3.78522 8.92351 3.98017C8.51558 4.16428 8.20397 4.44046 7.98867 4.80869C7.77337 5.17692 7.66572 5.62638 7.66572 6.15707V23.5296ZM10.8371 7.71665C11.1133 7.71665 11.3371 7.94051 11.3371 8.21665V10.5307C11.3371 10.8069 11.1133 11.0307 10.8371 11.0307H0.500001C0.223859 11.0307 0 10.8069 0 10.5307V8.21665C0 7.94051 0.223858 7.71665 0.5 7.71665H10.8371Z" fill="#1D68F9"/>
</svg>
