<svg width="48" height="48" viewBox="0 0 48 48" fill="none" xmlns="http://www.w3.org/2000/svg">
<circle cx="24" cy="24" r="24" fill="#1D68F9"/>
<path d="M15.401 21.4986L30.7405 15.3162C32.1865 14.7333 32.9096 14.4419 33.3653 14.8032C33.8209 15.1644 33.7022 15.9348 33.4648 17.4758L31.3873 30.9577C31.1742 32.3402 31.0677 33.0315 30.5695 33.2535C30.0713 33.4755 29.486 33.0926 28.3155 32.3266L24.9 30.0916C23.0039 28.8509 22.0558 28.2306 21.9561 27.2867C21.8565 26.3429 22.654 25.5382 24.2492 23.9288L29.1788 18.955C29.3772 18.7548 29.2354 18.4147 28.9536 18.4147C28.8907 18.4147 28.8293 18.4333 28.777 18.4683L19.2562 24.8482C18.4978 25.3565 18.1185 25.6106 17.6825 25.6791C17.2464 25.7477 16.8075 25.6222 15.9297 25.3712L15.5987 25.2765C13.2749 24.6119 12.113 24.2797 12.0757 23.5668C12.0384 22.8538 13.1592 22.4021 15.401 21.4986Z" fill="white" fill-opacity="0.9"/>
</svg>
