<svg width="48" height="48" viewBox="0 0 48 48" fill="none" xmlns="http://www.w3.org/2000/svg">
<circle cx="24" cy="24" r="24" fill="#1D68F9"/>
<path d="M25.6657 35.5296C25.6657 35.8058 25.4419 36.0296 25.1657 36.0296H21.2365C20.9604 36.0296 20.7365 35.8058 20.7365 35.5296V18.1571C20.7365 16.8249 21.0085 15.704 21.5524 14.7942C22.1076 13.8737 22.8839 13.1805 23.881 12.7148C24.8895 12.2383 26.085 12 27.4674 12C27.9207 12 28.3569 12.0325 28.7762 12.0975C29.0557 12.1336 29.3302 12.1769 29.5996 12.2274C29.8333 12.2713 29.9975 12.4795 29.9941 12.7172L29.9581 15.2022C29.9535 15.5247 29.6479 15.7589 29.327 15.7259C29.3078 15.7239 29.2885 15.722 29.2691 15.7202C29.0312 15.6986 28.7535 15.6877 28.4363 15.6877C27.847 15.6877 27.3428 15.7852 26.9235 15.9802C26.5156 16.1643 26.204 16.4405 25.9887 16.8087C25.7734 17.1769 25.6657 17.6264 25.6657 18.1571V35.5296ZM28.8371 19.7166C29.1133 19.7166 29.3371 19.9405 29.3371 20.2166V22.5307C29.3371 22.8069 29.1133 23.0307 28.8371 23.0307H18.5C18.2239 23.0307 18 22.8069 18 22.5307V20.2166C18 19.9405 18.2239 19.7166 18.5 19.7166H28.8371Z" fill="white" fill-opacity="0.9"/>
</svg>
