<svg width="20" height="20" viewBox="0 0 20 20" fill="none" xmlns="http://www.w3.org/2000/svg">
<mask id="mask0_282_13063" style="mask-type:alpha" maskUnits="userSpaceOnUse" x="0" y="0" width="20" height="20">
<rect width="20" height="20" fill="#D9D9D9"/>
</mask>
<g mask="url(#mask0_282_13063)">
<circle cx="10" cy="6" r="4.2" stroke="white" stroke-width="1.6"/>
<path d="M17.2004 18C17.642 18 18.0041 17.6411 17.9601 17.2017C17.8822 16.425 17.6909 15.6624 17.391 14.9385C16.989 13.9679 16.3997 13.086 15.6569 12.3431C14.914 11.6003 14.0321 11.011 13.0615 10.609C12.0909 10.2069 11.0506 10 10 10C8.94942 10 7.90914 10.2069 6.93853 10.609C5.96793 11.011 5.08601 11.6003 4.34315 12.3431C3.60028 13.086 3.011 13.9679 2.60896 14.9385C2.30914 15.6624 2.11783 16.425 2.03993 17.2017C1.99586 17.6411 2.35801 18 2.79964 18C3.24126 18 3.59413 17.6406 3.64916 17.2024C3.7203 16.6359 3.86708 16.0803 4.0865 15.5505C4.40816 14.774 4.87964 14.0684 5.474 13.474C6.06836 12.8796 6.77397 12.4082 7.55055 12.0865C8.32712 11.7648 9.15944 11.5993 10 11.5993C10.8406 11.5993 11.6729 11.7648 12.4495 12.0865C13.226 12.4082 13.9316 12.8796 14.526 13.474C15.1204 14.0684 15.5918 14.774 15.9135 15.5505C16.1329 16.0803 16.2797 16.6359 16.3508 17.2024C16.4059 17.6406 16.7587 18 17.2004 18Z" fill="white"/>
</g>
</svg>
